<?xml version="1.0" encoding="UTF-8" standalone="no"?>
<!-- Created with Inkscape (http://www.inkscape.org/) -->

<svg
   version="1.1"
   id="svg2"
   width="575"
   height="575"
   viewBox="0 0 575 575"
   sodipodi:docname="sermas-logo-purple.svg"
   inkscape:version="1.1.2 (0a00cf5339, 2022-02-04)"
   xmlns:inkscape="http://www.inkscape.org/namespaces/inkscape"
   xmlns:sodipodi="http://sodipodi.sourceforge.net/DTD/sodipodi-0.dtd"
   xmlns="http://www.w3.org/2000/svg"
   xmlns:svg="http://www.w3.org/2000/svg">
  <defs
     id="defs6" />
  <sodipodi:namedview
     id="namedview4"
     pagecolor="#ffffff"
     bordercolor="#666666"
     borderopacity="1.0"
     inkscape:pageshadow="2"
     inkscape:pageopacity="0.0"
     inkscape:pagecheckerboard="0"
     showgrid="false"
     inkscape:zoom="1.186087"
     inkscape:cx="329.65543"
     inkscape:cy="311.10704"
     inkscape:window-width="1920"
     inkscape:window-height="1056"
     inkscape:window-x="1920"
     inkscape:window-y="0"
     inkscape:window-maximized="1"
     inkscape:current-layer="g8" />
  <g
     inkscape:groupmode="layer"
     inkscape:label="Image"
     id="g8">
    <path
       style="fill:#64539e;fill-opacity:1"
       d="M 236,395.38937 C 178.13374,387.64673 140.63135,368.75513 127.03713,340.5 c -6.36925,-13.23828 -7.64414,-32.42702 -2.99726,-45.11262 2.76076,-7.53662 2.73885,-8.4828 -0.39094,-16.88738 -3.43081,-9.21289 -3.72866,-24.79356 -0.66369,-34.71679 5.61163,-18.16835 23.68979,-35.2005 51.14535,-48.18608 12.39608,-5.86294 31.96416,-12.53379 44.00908,-15.0029 8.73857,-1.79133 27.17906,-3.57309 37.11033,-3.58568 L 262,177 v 10.8185 c 0,12.36313 -1.60739,19.2104 -6.21188,26.4617 -7.26363,11.43901 -22.85979,20.98083 -43.51523,26.62287 C 187.1353,247.7694 164.0745,259.17851 149,272.20671 c -5.15751,4.45741 -13,13.50589 -13,14.99911 0,1.95125 14.37522,15.80329 21.39527,20.6166 17.74045,12.16376 39.10554,21.21187 61.77244,26.1606 4.76724,1.0408 10.61724,2.87691 13,4.08025 11.6072,5.86182 20.64954,15.56921 24.88193,26.71196 2.31109,6.08447 4.93154,20.91399 4.94329,27.97477 L 262,397 l -7.75,-0.10285 c -4.2625,-0.0566 -12.475,-0.73507 -18.25,-1.50778 z m 77.39037,-7.36174 c 1.39237,-18.44449 6.07327,-30.42993 15.62262,-40.0017 7.08792,-7.10455 15.66346,-11.60734 26.69159,-14.01504 22.80145,-4.97808 44.11985,-13.99738 61.90015,-26.18847 C 424.62478,303.00911 439,289.15707 439,287.20582 c 0,-1.49322 -7.84249,-10.5417 -13,-14.99911 -15.0745,-13.0282 -38.1353,-24.43731 -63.27289,-31.30364 -20.65544,-5.64204 -36.2516,-15.18386 -43.51523,-26.62287 C 314.60739,207.0289 313,200.18163 313,187.8185 V 177 l 6.75,0.009 c 9.93127,0.0126 28.37176,1.79435 37.11033,3.58568 12.04492,2.46911 31.613,9.13996 44.00908,15.0029 27.12152,12.82759 44.89733,29.4112 51.04798,47.62426 3.20167,9.48066 2.93863,25.86663 -0.56632,35.27861 -3.12979,8.40458 -3.1517,9.35076 -0.39094,16.88738 4.64688,12.6856 3.37199,31.87434 -2.99726,45.11262 C 438.07091,361.0601 415.4159,376.85138 382,386.47827 361.98611,392.24413 333.64783,397 319.3053,397 h -6.59226 z M 272.63408,343.41354 C 254.69919,339.07245 238.12982,322.56121 234.08529,305 c -1.63185,-7.08543 -1.33435,-25.78908 0.51009,-32.0685 5.22454,-17.78705 18.65144,-31.08517 36.90462,-36.55065 8.76863,-2.62555 24.80595,-2.44148 34.04153,0.39071 17.44513,5.34975 31.28412,19.9437 35.96938,37.93163 1.75102,6.72261 1.94726,20.98505 0.39212,28.49759 -4.04358,19.53354 -21.20092,36.6934 -40.70225,40.70824 -7.19253,1.48076 -21.42165,1.23397 -28.5667,-0.49548 z"
       id="path1231" />
    <path
       style="fill:#000000"
       id="path931"
       d="" />
  </g>
</svg>
