<?xml version="1.0" encoding="UTF-8" standalone="no"?>
<!-- Created with Inkscape (http://www.inkscape.org/) -->

<svg
   width="21.363022mm"
   height="179.67058mm"
   viewBox="0 0 21.363021 179.67058"
   version="1.1"
   id="svg5"
   sodipodi:docname="icons.svg"
   inkscape:version="1.1.2 (0a00cf5339, 2022-02-04)"
   xmlns:inkscape="http://www.inkscape.org/namespaces/inkscape"
   xmlns:sodipodi="http://sodipodi.sourceforge.net/DTD/sodipodi-0.dtd"
   xmlns="http://www.w3.org/2000/svg"
   xmlns:svg="http://www.w3.org/2000/svg">
  <sodipodi:namedview
     id="namedview7"
     pagecolor="#ffffff"
     bordercolor="#666666"
     borderopacity="1.0"
     inkscape:pageshadow="2"
     inkscape:pageopacity="0.0"
     inkscape:pagecheckerboard="0"
     inkscape:document-units="mm"
     showgrid="false"
     fit-margin-top="0"
     fit-margin-left="0"
     fit-margin-right="0"
     fit-margin-bottom="0"
     inkscape:zoom="1.2151235"
     inkscape:cx="63.368047"
     inkscape:cy="326.71577"
     inkscape:window-width="1920"
     inkscape:window-height="1056"
     inkscape:window-x="1920"
     inkscape:window-y="0"
     inkscape:window-maximized="1"
     inkscape:current-layer="layer1" />
  <defs
     id="defs2" />
  <g
     inkscape:label="Layer 1"
     inkscape:groupmode="layer"
     id="layer1"
     transform="translate(-3.6183423,-4.4495382)">
    <g
       id="g27316"
       transform="translate(-128.18861,-115.85847)"
       inkscape:export-filename="./angry.png"
       inkscape:export-xdpi="152.19"
       inkscape:export-ydpi="152.19">
      <circle
         style="fill:#ffcc00;fill-opacity:1;stroke:#000000;stroke-width:1;stroke-miterlimit:4;stroke-dasharray:none;stroke-opacity:1"
         id="circle26292"
         cx="142.48846"
         cy="130.98952"
         r="10.181509" />
      <g
         id="g26299"
         transform="translate(2.4115915,-23.180094)">
        <path
           style="fill:#000000;stroke-width:0.264583"
           d="m 141.92141,150.18834 c -0.0983,-0.25624 -0.0256,-0.54224 0.16794,-0.65994 2.87644,-1.74986 3.65818,-2.09302 3.81818,-1.67607 0.20641,0.53792 0.0986,0.63338 -2.05715,1.82107 -1.55368,0.85599 -1.77538,0.91517 -1.92897,0.51494 z"
           id="path25174" />
        <path
           style="fill:#000000;stroke-width:0.264583"
           d="m 136.21311,149.54139 c -0.94589,-0.55987 -1.83886,-1.06059 -1.98438,-1.11271 -0.15705,-0.0563 -0.11768,-0.27272 0.0969,-0.53266 0.33111,-0.40113 0.49775,-0.3597 1.98437,0.49337 2.65191,1.52176 2.47277,1.36273 2.01979,1.79299 -0.34572,0.32837 -0.61857,0.24574 -2.11667,-0.64099 z"
           id="path25172" />
        <path
           style="fill:#000000;stroke-width:0.264583"
           d="m 143.81988,152.46001 c -0.71422,-0.41599 -0.59844,-1.72996 0.19844,-2.2521 0.61274,-0.40148 0.71017,-0.40148 1.32291,0 1.58312,1.0373 0.11762,3.20671 -1.52135,2.2521 z"
           id="path25170" />
        <path
           style="fill:#000000;stroke-width:0.264583"
           d="m 134.82405,152.46001 c -0.4688,-0.27305 -0.62374,-1.45205 -0.26054,-1.98248 0.66127,-0.96572 2.44335,-0.38205 2.44335,0.80025 0,1.18928 -1.12478,1.79847 -2.18281,1.18223 z"
           id="path25168" />
        <path
           style="fill:#000000;stroke-width:0.264583"
           d="m 135.16059,159.97508 c 0.009,-1.10432 0.86116,-2.7879 1.82065,-3.59526 2.29766,-1.93336 5.82354,-1.34495 7.42006,1.23827 0.73124,1.18318 0.85074,2.87622 0.21233,3.00824 -0.34763,0.0719 -0.46302,-0.0772 -0.46302,-0.59824 0,-1.56113 -1.65531,-3.41797 -3.32649,-3.73149 -1.23162,-0.23105 -3.11972,0.49666 -3.81233,1.46935 -0.29201,0.41009 -0.62614,1.20386 -0.7425,1.76393 -0.26342,1.26783 -1.11777,1.6109 -1.1087,0.4452 z"
           id="path25166" />
      </g>
    </g>
    <g
       id="g27325"
       transform="translate(-100.15586,16.064514)"
       inkscape:export-filename="./sad.png"
       inkscape:export-xdpi="152.19"
       inkscape:export-ydpi="152.19">
      <circle
         style="fill:#ffcc00;fill-opacity:1;stroke:#000000;stroke-width:1;stroke-miterlimit:4;stroke-dasharray:none;stroke-opacity:1"
         id="circle26290"
         cx="114.45571"
         cy="130.98952"
         r="10.181509" />
      <g
         id="g26433"
         transform="translate(1.7332244,-23.154083)">
        <path
           style="fill:#000000;stroke-width:0.264583"
           d="m 117.88572,149.3329 c -1.88932,-1.08382 -2.07029,-1.25783 -1.78618,-1.71752 0.17832,-0.28853 0.6333,-0.13051 2.21454,0.76915 1.29992,0.7396 1.94253,1.25629 1.85291,1.48983 -0.20186,0.52604 -0.57463,0.43756 -2.28127,-0.54146 z"
           id="path25084" />
        <path
           style="fill:#000000;stroke-width:0.264583"
           d="m 105.42693,150.0691 c -0.0865,-0.2253 -0.15719,-0.45418 -0.15719,-0.50862 0,-0.2615 3.74422,-2.24546 3.97203,-2.10467 0.44901,0.27751 0.28672,0.82665 -0.33401,1.13014 -0.32743,0.16008 -1.20919,0.65145 -1.95947,1.09193 -1.14676,0.67323 -1.38922,0.73558 -1.52136,0.39122 z"
           id="path25082" />
        <path
           style="fill:#000000;stroke-width:0.264583"
           d="m 116.29095,152.39389 c -0.57446,-0.63478 -0.55575,-1.44413 0.046,-1.98868 0.93446,-0.84568 2.22813,-0.25501 2.22813,1.01732 0,1.29812 -1.42684,1.90757 -2.2741,0.97136 z"
           id="path25080" />
        <path
           style="fill:#000000;stroke-width:0.264583"
           d="m 107.29512,152.39389 c -1.03072,-1.13893 0.16901,-2.83775 1.55733,-2.20519 1.2719,0.57952 0.73699,2.68904 -0.68186,2.68904 -0.24067,0 -0.63464,-0.21773 -0.87547,-0.48385 z"
           id="path25078" />
        <path
           style="fill:#000000;stroke-width:0.264583"
           d="m 107.75731,160.4461 c -0.28958,-0.75462 0.45988,-2.57831 1.47795,-3.59638 1.57698,-1.57698 3.52785,-1.96848 5.42718,-1.08912 1.86257,0.86234 3.04271,2.52917 3.04271,4.29751 0,1.19878 -0.86944,0.91781 -1.0751,-0.34742 -0.0864,-0.53161 -0.35785,-1.27294 -0.60321,-1.6474 -0.52917,-0.80762 -2.25673,-1.74597 -3.21444,-1.74597 -1.82151,0 -3.71276,1.63402 -4.00475,3.46006 -0.16607,1.03851 -0.76268,1.41835 -1.05034,0.66872 z"
           id="path25076" />
      </g>
    </g>
    <g
       id="g27307"
       transform="translate(-14.768033,1.5681491)"
       inkscape:export-filename="./disgust.png"
       inkscape:export-xdpi="152.19"
       inkscape:export-ydpi="152.19">
      <circle
         style="fill:#ffcc00;fill-opacity:1;stroke:#000000;stroke-width:1;stroke-miterlimit:4;stroke-dasharray:none;stroke-opacity:1"
         id="path26130"
         cx="29.067886"
         cy="39.947495"
         r="10.181509" />
      <g
         id="g26581"
         transform="translate(57.04526,-114.53797)">
        <path
           style="fill:#000000;stroke-width:0.264583"
           d="m -22.737093,150.38532 c -1.94466,-1.10389 -2.22947,-1.37636 -1.84284,-1.76299 0.38982,-0.38981 4.08434,1.57973 3.98326,2.12348 -0.11599,0.62395 -0.52861,0.55445 -2.14042,-0.36049 z"
           id="path24930" />
        <path
           style="fill:#000000;stroke-width:0.264583"
           d="m -35.259443,150.88861 c -0.18875,-0.49186 -0.34025,-0.36148 1.7862,-1.5372 1.99217,-1.10146 1.98314,-1.09909 2.18479,-0.57362 0.1053,0.27441 -0.39402,0.70912 -1.6715,1.45521 -2.06521,1.20614 -2.08597,1.21206 -2.29949,0.65561 z"
           id="path24928" />
        <path
           style="fill:#000000;stroke-width:0.264583"
           d="m -33.433823,153.108 c -0.85899,-0.859 -0.0805,-2.43589 1.13396,-2.29682 0.91577,0.10487 1.49261,1.25537 1.01331,2.02104 -0.34498,0.55109 -1.69816,0.72488 -2.14727,0.27578 z"
           id="path24926" />
        <path
           style="fill:#000000;stroke-width:0.264583"
           d="m -24.179373,153.26627 c -0.75483,-0.5287 -0.7997,-1.83747 -0.0763,-2.22464 1.18034,-0.6317 2.13406,-0.0591 2.13406,1.28121 0,0.45635 -0.87747,1.35531 -1.32292,1.35531 -0.0808,0 -0.41145,-0.18534 -0.73487,-0.41188 z"
           id="path24924" />
        <path
           style="fill:#000000;stroke-width:0.264583"
           d="m -26.619503,160.17064 c 0,-0.23276 0.44759,-0.50279 1.12448,-0.67839 0.61847,-0.16045 1.53003,-0.3987 2.02569,-0.52945 0.98099,-0.25877 1.34775,-0.15336 1.34775,0.38734 0,0.20871 -0.68685,0.52163 -1.70802,0.77814 -2.11233,0.5306 -2.7899,0.54089 -2.7899,0.0424 z"
           id="path24922" />
      </g>
    </g>
    <g
       id="g27923"
       transform="translate(-69.71253,-36.704682)"
       inkscape:export-filename="./happy.png"
       inkscape:export-xdpi="152.19"
       inkscape:export-ydpi="152.19">
      <circle
         style="fill:#ffcc00;fill-opacity:1;stroke:#000000;stroke-width:1;stroke-miterlimit:4;stroke-dasharray:none;stroke-opacity:1"
         id="circle26288"
         cx="84.012383"
         cy="130.98952"
         r="10.181509" />
      <g
         id="g26841"
         transform="translate(27.628117,-25.955745)">
        <path
           style="fill:#000000;stroke-width:0.264583"
           d="m 60.029768,153.38023 c -0.71422,-0.41599 -0.59844,-1.72996 0.19844,-2.2521 0.61274,-0.40148 0.71017,-0.40148 1.32291,0 1.62366,1.06386 0.15959,3.23116 -1.52135,2.2521 z"
           id="path25160" />
        <path
           style="fill:#000000;stroke-width:0.264583"
           d="m 51.033938,153.38023 c -0.71422,-0.41599 -0.59844,-1.72996 0.19843,-2.2521 0.61274,-0.40148 0.71018,-0.40148 1.32292,0 1.58311,1.0373 0.11761,3.20671 -1.52135,2.2521 z"
           id="path25158" />
        <path
           style="fill:#000000;stroke-width:0.264583"
           d="m 58.307158,161.76979 c 1.50869,-0.45405 2.98628,-1.56567 3.80496,-2.86254 0.3463,-0.54857 0.62963,-1.05929 0.62963,-1.13495 0,-0.0756 -2.86512,-0.13755 -6.36693,-0.13755 h -6.36693 l 0.61224,1.09238 c 1.51844,2.70921 4.66139,3.95324 7.68703,3.04266 z"
           id="path25156" />
        <path
           style="fill:#000000;stroke-width:0.264583"
           d="m 54.407368,162.8346 c -1.72498,-0.56787 -2.62691,-1.13188 -3.68771,-2.30606 -1.15824,-1.28204 -2.1693,-3.36031 -1.8097,-3.71991 0.13655,-0.13656 3.43937,-0.21028 7.63158,-0.17033 l 7.39083,0.0704 -0.0937,0.6599 c -0.24872,1.75125 -2.44848,4.32673 -4.38753,5.13691 -1.39055,0.58101 -3.80079,0.73826 -5.04376,0.32907 z"
           id="path25154" />
      </g>
    </g>
    <g
       id="g27915"
       transform="translate(-42.046056,-10.320084)"
       inkscape:export-filename="./neutral.png"
       inkscape:export-xdpi="152.19"
       inkscape:export-ydpi="152.19">
      <circle
         style="fill:#ffcc00;fill-opacity:1;stroke:#000000;stroke-width:1;stroke-miterlimit:4;stroke-dasharray:none;stroke-opacity:1"
         id="circle26286"
         cx="56.345909"
         cy="130.98952"
         r="10.181509" />
      <g
         id="g26835"
         transform="translate(28.690074,-26.698095)">
        <path
           style="fill:#000000;stroke-width:0.264583"
           d="m 31.25464,154.42106 c -0.635935,-0.7027 -0.53908,-1.55431 0.234415,-2.06112 0.860178,-0.56361 1.846886,-0.17611 2.033189,0.79847 0.275074,1.43897 -1.309529,2.32131 -2.267604,1.26265 z"
           id="path25138" />
        <path
           style="fill:#000000;stroke-width:0.264583"
           d="m 22.236698,154.48916 c -0.625063,-0.62507 -0.515113,-1.62361 0.23273,-2.11361 0.854845,-0.56012 1.621266,-0.28775 1.96501,0.69831 0.232073,0.66573 0.193121,0.87652 -0.242469,1.31211 -0.626185,0.62618 -1.391865,0.66659 -1.955271,0.10319 z"
           id="path25136" />
        <path
           style="fill:#000000;stroke-width:0.264583"
           d="m 25.657383,163.01737 c -1.719453,-0.56959 -2.626871,-1.13401 -3.657905,-2.27524 -1.029295,-1.13931 -1.153485,-1.46066 -0.678038,-1.7545 0.165457,-0.10226 0.715584,0.29156 1.256771,0.89969 2.716259,3.05223 6.873217,3.17491 9.895728,0.29205 1.248119,-1.19046 1.782402,-1.41013 1.782402,-0.73284 0,0.64981 -1.657469,2.28644 -3.007083,2.96928 -1.727075,0.87382 -4.024043,1.12092 -5.591875,0.60156 z"
           id="path25134" />
      </g>
    </g>
    <g
       id="g27900"
       transform="translate(-13.587346,81.865421)"
       inkscape:export-filename="./surprise.png"
       inkscape:export-xdpi="152.19"
       inkscape:export-ydpi="152.19">
      <circle
         style="fill:#ffcc00;fill-opacity:1;stroke:#000000;stroke-width:1;stroke-miterlimit:4;stroke-dasharray:none;stroke-opacity:1"
         id="circle27681"
         cx="27.887199"
         cy="91.573189"
         r="10.181509" />
      <g
         id="g27562"
         transform="translate(-16.351659,-178.21832)">
        <path
           style="fill:#000000;stroke-width:0.264583"
           d="m 47.610247,265.55812 c -0.445227,-0.44523 -0.395187,-1.4191 0.09827,-1.91256 0.629917,-0.62992 1.623774,-0.51485 2.122099,0.24568 0.401481,0.61274 0.401481,0.71018 0,1.32292 -0.472223,0.7207 -1.659679,0.90465 -2.220373,0.34396 z"
           id="path24904" />
        <path
           style="fill:#000000;stroke-width:0.264583"
           d="m 39.088188,265.79334 c -1.284167,-0.63695 -0.79534,-2.56356 0.650436,-2.56356 0.800918,0 1.262982,0.58915 1.157095,1.47535 -0.121044,1.01304 -0.951309,1.51289 -1.807531,1.08821 z"
           id="path24902" />
        <path
           style="fill:#000000;stroke-width:0.264583"
           d="m 42.79483,275.98035 c -2.564374,-1.39159 -2.86736,-5.58313 -0.544843,-7.5374 1.592222,-1.33977 3.943803,-0.71603 4.9164,1.30404 1.734929,3.60341 -1.284409,7.90865 -4.371557,6.23336 z"
           id="path24900" />
      </g>
    </g>
    <g
       id="g28078"
       transform="translate(-13.587346,-23.672949)"
       inkscape:export-filename="./fear.png"
       inkscape:export-xdpi="152.19"
       inkscape:export-ydpi="152.19">
      <circle
         style="fill:#ffcc00;fill-opacity:1;stroke:#000000;stroke-width:1;stroke-miterlimit:4;stroke-dasharray:none;stroke-opacity:1"
         id="circle28068"
         cx="27.887199"
         cy="91.573189"
         r="10.181509" />
      <g
         id="g28076"
         transform="translate(-16.351659,-178.21832)">
        <path
           style="fill:#000000;stroke-width:0.264583"
           d="m 47.610247,265.55812 c -0.445227,-0.44523 -0.395187,-1.4191 0.09827,-1.91256 0.629917,-0.62992 1.623774,-0.51485 2.122099,0.24568 0.401481,0.61274 0.401481,0.71018 0,1.32292 -0.472223,0.7207 -1.659679,0.90465 -2.220373,0.34396 z"
           id="path28070" />
        <path
           style="fill:#000000;stroke-width:0.264583"
           d="m 39.088188,265.79334 c -1.284167,-0.63695 -0.79534,-2.56356 0.650436,-2.56356 0.800918,0 1.262982,0.58915 1.157095,1.47535 -0.121044,1.01304 -0.951309,1.51289 -1.807531,1.08821 z"
           id="path28072" />
        <path
           style="fill:#000000;stroke-width:0.332347"
           d="m 41.619646,275.39869 c -4.747508,-1.18601 -5.308435,-4.75832 -1.008685,-6.42388 2.947731,-1.14184 7.301288,-0.61025 9.101888,1.11139 3.21193,3.07107 -2.377867,6.74029 -8.093203,5.31249 z"
           id="path28074" />
      </g>
    </g>
  </g>
</svg>
